<?xml version="1.0" encoding="iso-8859-1"?>
<!-- Generator: Adobe Illustrator 19.0.0, SVG Export Plug-In . SVG Version: 6.00 Build 0)  -->
<svg xmlns="http://www.w3.org/2000/svg" xmlns:xlink="http://www.w3.org/1999/xlink" version="1.1" id="Capa_1" x="0px" y="0px" viewBox="0 0 320.192 320.192" style="enable-background:new 0 0 320.192 320.192;" xml:space="preserve" width="512px" height="512px">
<g>
	<g id="Dibujo_50_">
		<g>
			<path d="M171.137,198.74v-66.247c0-6.095-4.946-11.041-11.041-11.041c-6.095,0-11.041,4.946-11.041,11.041v66.247     c0,6.095,4.946,11.041,11.041,11.041C166.196,209.781,171.137,204.834,171.137,198.74z" fill="#FFFFFF"/>
			<path d="M121.452,231.863v-66.247c0-6.095-4.946-11.041-11.041-11.041c-6.095,0-11.041,4.946-11.041,11.041v66.247     c0,6.095,4.946,11.041,11.041,11.041C116.511,242.904,121.452,237.958,121.452,231.863z" fill="#FFFFFF"/>
			<path d="M220.822,231.863v-66.247c0-6.095-4.946-11.041-11.041-11.041s-11.041,4.946-11.041,11.041v66.247     c0,6.095,4.946,11.041,11.041,11.041C215.881,242.904,220.822,237.958,220.822,231.863z" fill="#FFFFFF"/>
			<path d="M115.932,264.986H104.89c-6.095,0-11.041,4.946-11.041,11.041v11.041c0,6.095,4.946,11.041,11.041,11.041h11.041     c6.095,0,11.041-4.946,11.041-11.041v-11.041C126.973,269.933,122.032,264.986,115.932,264.986z" fill="#FFFFFF"/>
			<path d="M165.616,231.863h-11.041c-6.095,0-11.041,4.946-11.041,11.041v11.041c0,6.095,4.946,11.041,11.041,11.041h11.041     c6.095,0,11.041-4.946,11.041-11.041v-11.041C176.658,236.809,171.717,231.863,165.616,231.863z" fill="#FFFFFF"/>
			<path d="M215.301,264.986H204.26c-6.095,0-11.041,4.946-11.041,11.041v11.041c0,6.095,4.946,11.041,11.041,11.041h11.041     c6.095,0,11.041-4.946,11.041-11.041v-11.041C226.342,269.933,221.402,264.986,215.301,264.986z" fill="#FFFFFF"/>
			<path d="M259.466,88.329c-2.804,0-6.139,0.436-9.324,1.016c-11.554-39.593-47.736-67.262-90.046-67.262     S81.605,49.751,70.045,89.345c-3.174-0.58-6.514-1.016-9.319-1.016C27.244,88.329,0,115.573,0,149.055     s27.244,60.726,60.726,60.726h11.041c6.095,0,11.041-4.946,11.041-11.041c0-6.095-4.946-11.041-11.041-11.041H60.726     c-21.309,0-38.644-17.34-38.644-38.644s17.335-38.644,38.644-38.644c1.529,0,3.991,0.375,6.586,0.894v10.147     c0,6.095,4.946,11.041,11.041,11.041s11.041-4.946,11.041-11.041V103.67c5.935-34.514,35.541-59.506,70.702-59.506     c35.171,0,64.778,25.003,70.702,59.528v17.76c0,6.095,4.946,11.041,11.041,11.041s11.041-4.946,11.041-11.041v-10.141     c2.606-0.519,5.073-0.9,6.586-0.9c21.304,0,38.644,17.34,38.644,38.644s-17.34,38.644-38.644,38.644h-11.041     c-6.095,0-11.041,4.946-11.041,11.041c0,6.095,4.946,11.041,11.041,11.041h11.041c33.482,0,60.726-27.244,60.726-60.726     S292.953,88.329,259.466,88.329z" fill="#FFFFFF"/>
		</g>
	</g>
</g>
<g>
</g>
<g>
</g>
<g>
</g>
<g>
</g>
<g>
</g>
<g>
</g>
<g>
</g>
<g>
</g>
<g>
</g>
<g>
</g>
<g>
</g>
<g>
</g>
<g>
</g>
<g>
</g>
<g>
</g>
</svg>
