<?xml version="1.0" encoding="iso-8859-1"?>
<!-- Generator: Adobe Illustrator 19.0.0, SVG Export Plug-In . SVG Version: 6.00 Build 0)  -->
<svg xmlns="http://www.w3.org/2000/svg" xmlns:xlink="http://www.w3.org/1999/xlink" version="1.1" id="Capa_1" x="0px" y="0px" viewBox="0 0 287.063 287.063" style="enable-background:new 0 0 287.063 287.063;" xml:space="preserve" width="512px" height="512px">
<g>
	<g id="Dibujo_60_">
		<g>
			<path d="M27.6,22.082h231.863c6.095,0,11.041-4.946,11.041-11.041S265.558,0,259.463,0H27.6c-6.095,0-11.041,4.946-11.041,11.041     S21.505,22.082,27.6,22.082z" fill="#FFFFFF"/>
			<path d="M259.463,44.159H44.162c-6.095,0-11.041,4.946-11.041,11.041s4.946,11.041,11.041,11.041h215.301     c6.095,0,11.041-4.946,11.041-11.041S265.558,44.159,259.463,44.159z" fill="#FFFFFF"/>
			<path d="M237.381,99.364c0-6.095-4.946-11.041-11.041-11.041H27.6c-6.095,0-11.041,4.946-11.041,11.041     c0,6.095,4.946,11.041,11.041,11.041h198.74C232.434,110.405,237.381,105.459,237.381,99.364z" fill="#FFFFFF"/>
			<path d="M259.463,132.488H77.285c-6.095,0-11.041,4.946-11.041,11.041c0,6.095,4.946,11.041,11.041,11.041h182.178     c6.095,0,11.041-4.946,11.041-11.041C270.504,137.434,265.558,132.488,259.463,132.488z" fill="#FFFFFF"/>
			<path d="M226.34,176.652h-99.37c-6.095,0-11.041,4.946-11.041,11.041s4.946,11.041,11.041,11.041h99.37     c6.095,0,11.041-4.946,11.041-11.041S232.434,176.652,226.34,176.652z" fill="#FFFFFF"/>
			<path d="M193.216,220.816H126.97c-6.095,0-11.041,4.946-11.041,11.041c0,6.095,4.946,11.041,11.041,11.041h66.247     c6.095,0,11.041-4.946,11.041-11.041S199.311,220.816,193.216,220.816z" fill="#FFFFFF"/>
			<path d="M160.093,264.981H126.97c-6.095,0-11.041,4.946-11.041,11.041s4.946,11.041,11.041,11.041h33.123     c6.095,0,11.041-4.946,11.041-11.041S166.188,264.981,160.093,264.981z" fill="#FFFFFF"/>
		</g>
	</g>
</g>
<g>
</g>
<g>
</g>
<g>
</g>
<g>
</g>
<g>
</g>
<g>
</g>
<g>
</g>
<g>
</g>
<g>
</g>
<g>
</g>
<g>
</g>
<g>
</g>
<g>
</g>
<g>
</g>
<g>
</g>
</svg>
